<?xml version="1.0" encoding="UTF-8"?>
<svg id="_图层_1" data-name="图层 1" xmlns="http://www.w3.org/2000/svg" viewBox="0 0 428.28 218.31">
  <defs>
    <style>
      .cls-1 {
        letter-spacing: 0em;
      }

      .cls-2 {
        letter-spacing: .24em;
      }

      .cls-3 {
        letter-spacing: -.03em;
      }

      .cls-4 {
        letter-spacing: .24em;
      }

      .cls-5 {
        letter-spacing: 0em;
      }

      .cls-6 {
        letter-spacing: -.01em;
      }

      .cls-7 {
        letter-spacing: .26em;
      }

      .cls-8 {
        letter-spacing: .27em;
      }

      .cls-9 {
        letter-spacing: .19em;
      }

      .cls-10 {
        letter-spacing: .26em;
      }

      .cls-11 {
        letter-spacing: 0em;
      }

      .cls-12 {
        letter-spacing: .28em;
      }

      .cls-13 {
        letter-spacing: -.02em;
      }

      .cls-14 {
        letter-spacing: 0em;
      }

      .cls-15 {
        font-size: 10.45px;
      }

      .cls-15, .cls-16, .cls-17, .cls-18 {
        font-family: SimHei, SimHei;
      }

      .cls-19 {
        fill: #dae3f4;
      }

      .cls-20 {
        letter-spacing: .2em;
      }

      .cls-21 {
        letter-spacing: -.05em;
      }

      .cls-22 {
        letter-spacing: .21em;
      }

      .cls-23 {
        letter-spacing: .21em;
      }

      .cls-24 {
        letter-spacing: .25em;
      }

      .cls-25 {
        letter-spacing: 0em;
      }

      .cls-26 {
        letter-spacing: .24em;
      }

      .cls-27 {
        letter-spacing: .22em;
      }

      .cls-28 {
        letter-spacing: 0em;
      }

      .cls-29 {
        letter-spacing: .03em;
      }

      .cls-30 {
        letter-spacing: .22em;
      }

      .cls-31 {
        letter-spacing: 0em;
      }

      .cls-32 {
        letter-spacing: .25em;
      }

      .cls-33 {
        letter-spacing: 0em;
      }

      .cls-34 {
        letter-spacing: .04em;
      }

      .cls-35 {
        letter-spacing: .26em;
      }

      .cls-36 {
        letter-spacing: .02em;
      }

      .cls-37, .cls-38 {
        fill: #fff;
      }

      .cls-39 {
        letter-spacing: -.04em;
      }

      .cls-40 {
        letter-spacing: .02em;
      }

      .cls-41 {
        letter-spacing: .24em;
      }

      .cls-42 {
        letter-spacing: -.04em;
      }

      .cls-43 {
        letter-spacing: -.03em;
      }

      .cls-44 {
        letter-spacing: -.02em;
      }

      .cls-45 {
        letter-spacing: .27em;
      }

      .cls-46 {
        letter-spacing: .29em;
      }

      .cls-47 {
        letter-spacing: .01em;
      }

      .cls-48 {
        letter-spacing: .26em;
      }

      .cls-49 {
        letter-spacing: .26em;
      }

      .cls-38 {
        fill-rule: evenodd;
      }

      .cls-50 {
        letter-spacing: .23em;
      }

      .cls-51 {
        letter-spacing: .25em;
      }

      .cls-52 {
        letter-spacing: -.04em;
      }

      .cls-53 {
        letter-spacing: .02em;
      }

      .cls-54 {
        letter-spacing: -.08em;
      }

      .cls-55 {
        letter-spacing: .25em;
      }

      .cls-56 {
        letter-spacing: .01em;
      }

      .cls-57 {
        letter-spacing: 0em;
      }

      .cls-58 {
        letter-spacing: .24em;
      }

      .cls-59 {
        letter-spacing: -.02em;
      }

      .cls-60 {
        letter-spacing: .23em;
      }

      .cls-61 {
        letter-spacing: .26em;
      }

      .cls-62 {
        letter-spacing: 0em;
      }

      .cls-63 {
        letter-spacing: -.03em;
      }

      .cls-64 {
        letter-spacing: -.02em;
      }

      .cls-65 {
        letter-spacing: .27em;
      }

      .cls-66 {
        letter-spacing: .22em;
      }

      .cls-67 {
        letter-spacing: -.02em;
      }

      .cls-68 {
        letter-spacing: .03em;
      }

      .cls-69 {
        letter-spacing: .25em;
      }

      .cls-70 {
        letter-spacing: 0em;
      }

      .cls-71 {
        letter-spacing: -.02em;
      }

      .cls-72 {
        letter-spacing: .27em;
      }

      .cls-73 {
        letter-spacing: 0em;
      }

      .cls-74 {
        letter-spacing: -.09em;
      }

      .cls-75 {
        letter-spacing: -.02em;
      }

      .cls-76 {
        letter-spacing: 0em;
      }

      .cls-77 {
        letter-spacing: -.03em;
      }

      .cls-78 {
        letter-spacing: -.02em;
      }

      .cls-79 {
        letter-spacing: .24em;
      }

      .cls-80 {
        letter-spacing: .01em;
      }

      .cls-81 {
        letter-spacing: .24em;
      }

      .cls-82 {
        letter-spacing: -.03em;
      }

      .cls-83 {
        letter-spacing: .26em;
      }

      .cls-84 {
        letter-spacing: 0em;
      }

      .cls-85 {
        letter-spacing: -.02em;
      }

      .cls-86 {
        letter-spacing: .25em;
      }

      .cls-87 {
        letter-spacing: -.02em;
      }

      .cls-88 {
        letter-spacing: .25em;
      }

      .cls-89 {
        letter-spacing: 0em;
      }

      .cls-90 {
        letter-spacing: .27em;
      }

      .cls-16 {
        font-size: 10.45px;
      }

      .cls-91 {
        letter-spacing: .22em;
      }

      .cls-92 {
        letter-spacing: 0em;
      }

      .cls-93 {
        letter-spacing: .03em;
      }

      .cls-94 {
        letter-spacing: -.02em;
      }

      .cls-95 {
        letter-spacing: .02em;
      }

      .cls-96 {
        letter-spacing: -.01em;
      }

      .cls-97 {
        letter-spacing: -.04em;
      }

      .cls-98 {
        letter-spacing: -.02em;
      }

      .cls-99 {
        letter-spacing: 0em;
      }

      .cls-100 {
        letter-spacing: .26em;
      }

      .cls-101 {
        letter-spacing: -.05em;
      }

      .cls-102 {
        letter-spacing: .02em;
      }

      .cls-103 {
        letter-spacing: .19em;
      }

      .cls-104 {
        letter-spacing: -.02em;
      }

      .cls-105 {
        letter-spacing: .27em;
      }

      .cls-106 {
        letter-spacing: -.03em;
      }

      .cls-107 {
        letter-spacing: 0em;
      }

      .cls-108 {
        letter-spacing: .25em;
      }

      .cls-109 {
        letter-spacing: .26em;
      }

      .cls-110 {
        fill: none;
        stroke: #000;
        stroke-linejoin: bevel;
        stroke-width: .48px;
      }

      .cls-111 {
        letter-spacing: .22em;
      }

      .cls-112 {
        letter-spacing: -.01em;
      }

      .cls-113 {
        letter-spacing: .01em;
      }

      .cls-114 {
        letter-spacing: 0em;
      }

      .cls-115 {
        letter-spacing: .25em;
      }

      .cls-116 {
        letter-spacing: -.03em;
      }

      .cls-117 {
        letter-spacing: -.01em;
      }

      .cls-118 {
        letter-spacing: 0em;
      }

      .cls-119 {
        letter-spacing: -.02em;
      }

      .cls-120 {
        letter-spacing: .02em;
      }

      .cls-121 {
        letter-spacing: 0em;
      }

      .cls-122 {
        letter-spacing: -.06em;
      }

      .cls-123 {
        letter-spacing: -.01em;
      }

      .cls-124 {
        letter-spacing: 0em;
      }

      .cls-125 {
        letter-spacing: -.02em;
      }

      .cls-126 {
        letter-spacing: 0em;
      }

      .cls-127 {
        letter-spacing: 0em;
      }

      .cls-128 {
        letter-spacing: -.01em;
      }

      .cls-129 {
        letter-spacing: -.03em;
      }

      .cls-130 {
        letter-spacing: 0em;
      }

      .cls-131 {
        letter-spacing: .28em;
      }

      .cls-132 {
        letter-spacing: 0em;
      }

      .cls-133 {
        letter-spacing: 0em;
      }

      .cls-134 {
        letter-spacing: .01em;
      }

      .cls-135 {
        letter-spacing: 0em;
      }

      .cls-136 {
        letter-spacing: .01em;
      }

      .cls-137 {
        letter-spacing: .25em;
      }

      .cls-138 {
        letter-spacing: .27em;
      }

      .cls-139 {
        letter-spacing: .2em;
      }

      .cls-140 {
        letter-spacing: .01em;
      }

      .cls-141 {
        letter-spacing: .02em;
      }

      .cls-142 {
        letter-spacing: 0em;
      }

      .cls-17 {
        font-size: 5.05px;
      }

      .cls-143 {
        letter-spacing: -.02em;
      }

      .cls-144 {
        letter-spacing: .25em;
      }

      .cls-145 {
        letter-spacing: .26em;
      }

      .cls-146 {
        letter-spacing: .29em;
      }

      .cls-147 {
        letter-spacing: .25em;
      }

      .cls-18 {
        font-size: 5.5px;
      }

      .cls-148 {
        letter-spacing: .26em;
      }

      .cls-149 {
        letter-spacing: .24em;
      }

      .cls-150 {
        letter-spacing: 0em;
      }

      .cls-151 {
        letter-spacing: 0em;
      }

      .cls-152 {
        letter-spacing: .01em;
      }

      .cls-153 {
        letter-spacing: 0em;
      }

      .cls-154 {
        letter-spacing: .02em;
      }

      .cls-155 {
        letter-spacing: .29em;
      }

      .cls-156 {
        letter-spacing: .3em;
      }

      .cls-157 {
        letter-spacing: .23em;
      }

      .cls-158 {
        letter-spacing: .29em;
      }

      .cls-159 {
        letter-spacing: -.01em;
      }

      .cls-160 {
        letter-spacing: 0em;
      }

      .cls-161 {
        letter-spacing: 0em;
      }

      .cls-162 {
        letter-spacing: -.01em;
      }

      .cls-163 {
        letter-spacing: -.02em;
      }

      .cls-164 {
        letter-spacing: .24em;
      }

      .cls-165 {
        letter-spacing: .23em;
      }

      .cls-166 {
        letter-spacing: -.03em;
      }
    </style>
  </defs>
  <rect class="cls-37" x=".24" width="53.64" height="19.32"/>
  <path class="cls-38" d="M53.88,0h374.16v19.32H53.88V0ZM.36.48h53.4v19.08H.36V.48Z"/>
  <rect class="cls-37" x="54" y=".48" width="374.04" height="18.84"/>
  <text class="cls-18" transform="translate(57 11.76)"><tspan class="cls-64" x="0" y="0">Y</tspan><tspan class="cls-119" x="2.63" y="0">i</tspan><tspan x="5.29" y="0">w</tspan><tspan class="cls-6" x="8.04" y="0">e</tspan><tspan class="cls-144" x="10.71" y="0">n</tspan><tspan x="14.86" y="0">Du</tspan></text>
  <text class="cls-18" transform="translate(80.16 11.76)"><tspan class="cls-147" x="0" y="0">,</tspan><tspan x="4.12" y="0">X</tspan><tspan class="cls-119" x="6.88" y="0">i</tspan><tspan class="cls-36" x="9.53" y="0">a</tspan><tspan x="12.37" y="0">o</tspan><tspan class="cls-67" x="15.12" y="0">l</tspan><tspan class="cls-72" x="17.78" y="0">i</tspan><tspan x="22.02" y="0">L</tspan><tspan class="cls-119" x="24.77" y="0">i</tspan><tspan class="cls-45" x="27.43" y="0">,</tspan><tspan class="cls-140" x="31.66" y="0">S</tspan><tspan class="cls-44" x="34.48" y="0">h</tspan><tspan x="37.12" y="0">u</tspan><tspan class="cls-36" x="39.88" y="0">a</tspan><tspan class="cls-44" x="42.71" y="0">n</tspan><tspan class="cls-45" x="45.35" y="0">g</tspan><tspan x="49.59" y="0">S</tspan><tspan class="cls-28" x="52.34" y="0">o</tspan><tspan x="55.04" y="0">n</tspan><tspan class="cls-58" x="57.79" y="0">g</tspan><tspan class="cls-36" x="61.86" y="0">a</tspan><tspan class="cls-44" x="64.7" y="0">n</tspan><tspan class="cls-109" x="67.34" y="0">d</tspan><tspan x="71.51" y="0">Z</tspan><tspan class="cls-98" x="74.26" y="0">h</tspan><tspan x="76.9" y="0">enlo</tspan><tspan class="cls-127" x="87.9" y="0">n</tspan><tspan class="cls-49" x="90.7" y="0">g</tspan><tspan x="94.88" y="0">Du.</tspan></text>
  <rect class="cls-37" x=".24" y="19.32" width="53.64" height="40.32"/>
  <rect class="cls-37" x=".36" y="19.8" width="53.4" height="39.84"/>
  <text class="cls-18" transform="translate(13.56 43.68)"><tspan x="0" y="0">17</tspan><tspan class="cls-130" x="5.5" y="0">:</tspan><tspan x="8.21" y="0">10-17</tspan><tspan class="cls-119" x="21.96" y="0">:</tspan><tspan x="24.62" y="0">30</tspan></text>
  <rect class="cls-37" x="53.88" y="19.32" width="374.16" height="40.32"/>
  <rect class="cls-37" x="54" y="19.8" width="374.04" height="39.84"/>
  <text class="cls-17" transform="translate(57 30.72)"><tspan x="0" y="0">76</tspan><tspan class="cls-116" x="5.05" y="0">7</tspan><tspan x="7.43" y="0">0</tspan></text>
  <text class="cls-17" transform="translate(57 41.28)"><tspan class="cls-117" x="0" y="0">A</tspan><tspan class="cls-84" x="2.46" y="0">u</tspan><tspan x="4.96" y="0">t</tspan><tspan class="cls-116" x="7.48" y="0">o</tspan><tspan class="cls-161" x="9.86" y="0">m</tspan><tspan x="12.42" y="0">at</tspan><tspan class="cls-121" x="17.47" y="0">e</tspan><tspan class="cls-27" x="20.02" y="0">d</tspan><tspan class="cls-75" x="23.67" y="0">P</tspan><tspan class="cls-11" x="26.1" y="0">a</tspan><tspan class="cls-161" x="28.62" y="0">r</tspan><tspan x="31.18" y="0">a</tspan><tspan class="cls-87" x="33.7" y="0">m</tspan><tspan class="cls-121" x="36.11" y="0">et</tspan><tspan class="cls-93" x="41.22" y="0">e</tspan><tspan class="cls-63" x="43.88" y="0">r</tspan><tspan class="cls-154" x="46.24" y="0">i</tspan><tspan class="cls-129" x="48.87" y="0">z</tspan><tspan class="cls-11" x="51.23" y="0">at</tspan><tspan class="cls-29" x="56.28" y="0">i</tspan><tspan class="cls-3" x="58.97" y="0">o</tspan><tspan class="cls-50" x="61.35" y="0">n</tspan><tspan class="cls-3" x="65.05" y="0">o</tspan><tspan class="cls-7" x="67.43" y="0">f</tspan><tspan class="cls-161" x="71.25" y="0">M</tspan><tspan class="cls-43" x="73.8" y="0">u</tspan><tspan x="76.19" y="0">l</tspan><tspan class="cls-161" x="78.72" y="0">t</tspan><tspan x="81.27" y="0">i</tspan><tspan class="cls-121" x="83.8" y="0">-</tspan><tspan x="86.35" y="0">a</tspan><tspan class="cls-3" x="88.88" y="0">x</tspan><tspan class="cls-113" x="91.26" y="0">i</tspan><tspan class="cls-91" x="93.84" y="0">s</tspan><tspan class="cls-84" x="97.48" y="0">S</tspan><tspan class="cls-117" x="99.97" y="0">w</tspan><tspan class="cls-95" x="102.44" y="0">e</tspan><tspan class="cls-78" x="105.04" y="0">p</tspan><tspan class="cls-26" x="107.49" y="0">t</tspan><tspan class="cls-101" x="111.21" y="0">V</tspan><tspan class="cls-3" x="113.47" y="0">o</tspan><tspan class="cls-104" x="115.85" y="0">l</tspan><tspan class="cls-43" x="118.29" y="0">u</tspan><tspan x="120.68" y="0">m</tspan><tspan class="cls-161" x="123.2" y="0">e</tspan><tspan class="cls-137" x="125.76" y="0">s</tspan><tspan x="129.55" y="0">f</tspan><tspan class="cls-3" x="132.07" y="0">o</tspan><tspan class="cls-157" x="134.45" y="0">r</tspan><tspan class="cls-89" x="138.12" y="0">Is</tspan><tspan x="143.08" y="0">o</tspan><tspan class="cls-116" x="145.6" y="0">g</tspan><tspan class="cls-34" x="147.98" y="0">e</tspan><tspan class="cls-3" x="150.69" y="0">o</tspan><tspan class="cls-121" x="153.06" y="0">me</tspan><tspan class="cls-11" x="158.18" y="0">t</tspan><tspan class="cls-128" x="160.7" y="0">r</tspan><tspan x="163.16" y="0">i</tspan><tspan class="cls-20" x="165.69" y="0">c</tspan><tspan x="169.2" y="0">A</tspan><tspan class="cls-78" x="171.73" y="0">n</tspan><tspan class="cls-135" x="174.17" y="0">a</tspan><tspan class="cls-113" x="176.69" y="0">l</tspan><tspan class="cls-33" x="179.28" y="0">ys</tspan><tspan class="cls-42" x="184.24" y="0">i</tspan><tspan class="cls-33" x="186.58" y="0">s</tspan><tspan x="189.06" y="0">.</tspan></text>
  <text class="cls-17" transform="translate(57 51.84)"><tspan class="cls-117" x="0" y="0">D</tspan><tspan class="cls-84" x="2.46" y="0">u</tspan><tspan x="4.96" y="0">a</tspan><tspan class="cls-88" x="7.48" y="0">n</tspan><tspan x="11.29" y="0">Hu</tspan></text>
  <text class="cls-17" transform="translate(76.56 51.84)"><tspan class="cls-137" x="0" y="0">,</tspan><tspan class="cls-89" x="3.79" y="0">J</tspan><tspan x="6.27" y="0">i</tspan><tspan class="cls-95" x="8.79" y="0">a</tspan><tspan x="11.4" y="0">k</tspan><tspan class="cls-87" x="13.92" y="0">a</tspan><tspan class="cls-139" x="16.33" y="0">i</tspan><tspan class="cls-54" x="19.88" y="0">Y</tspan><tspan class="cls-75" x="21.99" y="0">u</tspan><tspan class="cls-91" x="24.41" y="0">,</tspan><tspan class="cls-89" x="28.05" y="0">J</tspan><tspan class="cls-113" x="30.53" y="0">i</tspan><tspan x="33.11" y="0">nl</tspan><tspan class="cls-159" x="38.16" y="0">a</tspan><tspan class="cls-81" x="40.62" y="0">n</tspan><tspan class="cls-162" x="44.36" y="0">X</tspan><tspan class="cls-48" x="46.82" y="0">u</tspan><tspan class="cls-121" x="50.66" y="0">a</tspan><tspan x="53.21" y="0">n</tspan><tspan class="cls-22" x="55.74" y="0">d</tspan><tspan x="59.32" y="0">G</tspan><tspan class="cls-161" x="61.85" y="0">a</tspan><tspan class="cls-11" x="64.4" y="0">n</tspan><tspan class="cls-60" x="66.93" y="0">g</tspan><tspan x="70.61" y="0">X</tspan><tspan class="cls-89" x="73.13" y="0">u</tspan><tspan class="cls-11" x="75.61" y="0">.</tspan></text>
  <rect class="cls-37" x=".24" y="59.64" width="53.64" height="40.32"/>
  <rect class="cls-37" x=".36" y="60" width="53.4" height="39.96"/>
  <text class="cls-18" transform="translate(13.56 84)"><tspan x="0" y="0">17</tspan><tspan class="cls-130" x="5.5" y="0">:</tspan><tspan x="8.21" y="0">30-17</tspan><tspan class="cls-119" x="21.96" y="0">:</tspan><tspan x="24.62" y="0">50</tspan></text>
  <rect class="cls-37" x="53.88" y="59.64" width="374.16" height="40.32"/>
  <rect class="cls-37" x="54" y="60" width="374.04" height="39.96"/>
  <text class="cls-18" transform="translate(57 70.92)"><tspan x="0" y="0">67</tspan><tspan class="cls-151" x="5.5" y="0">5</tspan><tspan x="8.3" y="0">7</tspan></text>
  <text class="cls-18" transform="translate(57 81.48)"><tspan x="0" y="0">RM</tspan><tspan class="cls-96" x="5.5" y="0">C</tspan><tspan x="8.18" y="0">-Y</tspan><tspan class="cls-67" x="13.68" y="0">O</tspan><tspan x="16.34" y="0">L</tspan><tspan class="cls-134" x="19.09" y="0">O</tspan><tspan class="cls-66" x="21.91" y="0">:</tspan><tspan class="cls-103" x="25.84" y="0">A</tspan><tspan class="cls-140" x="29.62" y="0">S</tspan><tspan class="cls-59" x="32.44" y="0">m</tspan><tspan x="35.07" y="0">al</tspan><tspan class="cls-115" x="40.57" y="0">l</tspan><tspan class="cls-56" x="44.7" y="0">O</tspan><tspan class="cls-163" x="47.52" y="0">b</tspan><tspan x="50.18" y="0">j</tspan><tspan class="cls-6" x="52.93" y="0">e</tspan><tspan class="cls-141" x="55.61" y="0">c</tspan><tspan class="cls-83" x="58.45" y="0">t</tspan><tspan x="62.61" y="0">D</tspan><tspan class="cls-112" x="65.36" y="0">e</tspan><tspan x="68.04" y="0">t</tspan><tspan class="cls-36" x="70.79" y="0">e</tspan><tspan class="cls-6" x="73.62" y="0">c</tspan><tspan x="76.3" y="0">tio</tspan><tspan class="cls-105" x="84.55" y="0">n</tspan><tspan class="cls-98" x="88.8" y="0">F</tspan><tspan class="cls-36" x="91.44" y="0">r</tspan><tspan class="cls-44" x="94.28" y="0">a</tspan><tspan x="96.92" y="0">m</tspan><tspan class="cls-70" x="99.67" y="0">e</tspan><tspan x="102.45" y="0">wor</tspan><tspan class="cls-138" x="110.7" y="0">k</tspan><tspan x="114.96" y="0">w</tspan><tspan class="cls-67" x="117.71" y="0">i</tspan><tspan class="cls-112" x="120.36" y="0">t</tspan><tspan class="cls-144" x="123.04" y="0">h</tspan><tspan x="127.18" y="0">Ro</tspan><tspan class="cls-73" x="132.68" y="0">u</tspan><tspan class="cls-112" x="135.4" y="0">t</tspan><tspan class="cls-56" x="138.08" y="0">i</tspan><tspan class="cls-163" x="140.89" y="0">n</tspan><tspan class="cls-58" x="143.56" y="0">g</tspan><tspan x="147.63" y="0">At</tspan><tspan class="cls-112" x="153.13" y="0">t</tspan><tspan x="155.8" y="0">e</tspan><tspan class="cls-163" x="158.55" y="0">n</tspan><tspan class="cls-36" x="161.22" y="0">t</tspan><tspan class="cls-132" x="164.05" y="0">i</tspan><tspan class="cls-1" x="166.8" y="0">o</tspan><tspan class="cls-79" x="169.6" y="0">n</tspan><tspan class="cls-98" x="173.69" y="0">a</tspan><tspan class="cls-142" x="176.33" y="0">n</tspan><tspan class="cls-65" x="179.05" y="0">d</tspan><tspan x="183.3" y="0">M</tspan><tspan class="cls-163" x="186.05" y="0">u</tspan><tspan x="188.71" y="0">lti-</tspan><tspan class="cls-140" x="199.71" y="0">S</tspan><tspan class="cls-112" x="202.53" y="0">c</tspan><tspan x="205.21" y="0">a</tspan><tspan class="cls-134" x="207.96" y="0">l</tspan><tspan class="cls-35" x="210.78" y="0">e</tspan><tspan x="214.93" y="0">Co</tspan><tspan class="cls-163" x="220.43" y="0">n</tspan><tspan x="223.1" y="0">t</tspan><tspan class="cls-70" x="225.85" y="0">e</tspan><tspan class="cls-127" x="228.63" y="0">x</tspan><tspan class="cls-51" x="231.43" y="0">t</tspan><tspan x="235.53" y="0">Mo</tspan><tspan class="cls-73" x="241.03" y="0">d</tspan><tspan class="cls-163" x="243.75" y="0">u</tspan><tspan class="cls-134" x="246.41" y="0">l</tspan><tspan x="249.23" y="0">a</tspan><tspan class="cls-36" x="251.98" y="0">t</tspan><tspan class="cls-67" x="254.81" y="0">i</tspan><tspan x="257.47" y="0">o</tspan><tspan class="cls-142" x="260.22" y="0">n</tspan><tspan x="262.94" y="0">.</tspan></text>
  <text class="cls-18" transform="translate(57 92.4)"><tspan x="0" y="0">J</tspan><tspan class="cls-119" x="2.75" y="0">i</tspan><tspan class="cls-143" x="5.41" y="0">m</tspan><tspan class="cls-141" x="8.03" y="0">e</tspan><tspan class="cls-94" x="10.87" y="0">n</tspan><tspan class="cls-146" x="13.53" y="0">g</tspan><tspan x="17.87" y="0">C</tspan><tspan class="cls-163" x="20.62" y="0">h</tspan><tspan x="23.28" y="0">en</tspan></text>
  <text class="cls-18" transform="translate(88.08 92.4)"><tspan class="cls-23" x="0" y="0">,</tspan><tspan class="cls-74" x="3.9" y="0">Y</tspan><tspan class="cls-44" x="6.15" y="0">u</tspan><tspan class="cls-67" x="8.79" y="0">l</tspan><tspan class="cls-72" x="11.45" y="0">i</tspan><tspan x="15.69" y="0">L</tspan><tspan class="cls-119" x="18.44" y="0">i</tspan><tspan x="21.1" y="0">u</tspan><tspan class="cls-24" x="23.85" y="0">,</tspan><tspan x="27.97" y="0">X</tspan><tspan class="cls-119" x="30.72" y="0">i</tspan><tspan class="cls-36" x="33.37" y="0">a</tspan><tspan x="36.21" y="0">o</tspan><tspan class="cls-127" x="38.96" y="0">d</tspan><tspan class="cls-98" x="41.76" y="0">o</tspan><tspan x="44.4" y="0">n</tspan><tspan class="cls-109" x="47.15" y="0">g</tspan><tspan class="cls-52" x="51.33" y="0">W</tspan><tspan class="cls-112" x="53.84" y="0">a</tspan><tspan class="cls-44" x="56.52" y="0">ng</tspan><tspan class="cls-69" x="61.8" y="0">,</tspan><tspan x="65.92" y="0">L</tspan><tspan class="cls-130" x="68.67" y="0">i</tspan><tspan class="cls-70" x="71.38" y="0">a</tspan><tspan class="cls-98" x="74.16" y="0">n</tspan><tspan class="cls-134" x="76.8" y="0">j</tspan><tspan x="79.62" y="0">u</tspan><tspan class="cls-49" x="82.37" y="0">n</tspan><tspan x="86.54" y="0">Z</tspan><tspan class="cls-44" x="89.29" y="0">h</tspan><tspan class="cls-36" x="91.93" y="0">a</tspan><tspan x="94.77" y="0">ng</tspan><tspan class="cls-49" x="100.27" y="0">,</tspan><tspan class="cls-70" x="104.44" y="0">a</tspan><tspan class="cls-44" x="107.23" y="0">n</tspan><tspan class="cls-45" x="109.87" y="0">d</tspan><tspan x="114.1" y="0">M</tspan><tspan class="cls-130" x="116.85" y="0">i</tspan><tspan class="cls-49" x="119.56" y="0">n</tspan><tspan class="cls-132" x="123.74" y="0">Lu</tspan><tspan class="cls-98" x="129.24" y="0">o</tspan><tspan x="131.88" y="0">.</tspan></text>
  <rect class="cls-37" x=".24" y="99.96" width="53.64" height="40.32"/>
  <rect class="cls-37" x=".36" y="100.32" width="53.4" height="39.96"/>
  <text class="cls-18" transform="translate(13.56 124.32)"><tspan x="0" y="0">17</tspan><tspan class="cls-130" x="5.5" y="0">:</tspan><tspan x="8.21" y="0">50-18</tspan><tspan class="cls-119" x="21.96" y="0">:</tspan><tspan x="24.62" y="0">10</tspan></text>
  <rect class="cls-37" x="53.88" y="99.96" width="374.16" height="40.32"/>
  <rect class="cls-37" x="54" y="100.32" width="374.04" height="39.96"/>
  <text class="cls-18" transform="translate(57 111.24)"><tspan x="0" y="0">25</tspan><tspan class="cls-151" x="5.5" y="0">3</tspan><tspan x="8.3" y="0">1</tspan></text>
  <text class="cls-18" transform="translate(57 121.8)"><tspan class="cls-140" x="0" y="0">S</tspan><tspan x="2.82" y="0">w</tspan><tspan class="cls-119" x="5.57" y="0">i</tspan><tspan class="cls-163" x="8.23" y="0">n</tspan><tspan class="cls-36" x="10.89" y="0">-</tspan><tspan class="cls-44" x="13.73" y="0">W</tspan><tspan x="16.37" y="0">Ne</tspan><tspan class="cls-6" x="21.87" y="0">t</tspan><tspan class="cls-156" x="24.55" y="0">:</tspan><tspan class="cls-47" x="28.92" y="0">B</tspan><tspan x="31.75" y="0">o</tspan><tspan class="cls-166" x="34.5" y="0">u</tspan><tspan class="cls-163" x="37.1" y="0">n</tspan><tspan class="cls-140" x="39.77" y="0">d</tspan><tspan x="42.59" y="0">ar</tspan><tspan class="cls-28" x="48.09" y="0">y</tspan><tspan x="50.79" y="0">-</tspan><tspan class="cls-64" x="53.54" y="0">A</tspan><tspan class="cls-77" x="56.17" y="0">w</tspan><tspan class="cls-98" x="58.74" y="0">a</tspan><tspan x="61.38" y="0">r</tspan><tspan class="cls-145" x="64.13" y="0">e</tspan><tspan x="68.29" y="0">Se</tspan><tspan class="cls-59" x="73.79" y="0">m</tspan><tspan x="76.41" y="0">a</tspan><tspan class="cls-163" x="79.16" y="0">n</tspan><tspan class="cls-36" x="81.82" y="0">t</tspan><tspan class="cls-56" x="84.66" y="0">i</tspan><tspan class="cls-108" x="87.48" y="0">c</tspan><tspan class="cls-140" x="91.58" y="0">S</tspan><tspan x="94.4" y="0">eg</tspan><tspan class="cls-106" x="99.9" y="0">m</tspan><tspan class="cls-36" x="102.47" y="0">e</tspan><tspan class="cls-73" x="105.31" y="0">n</tspan><tspan class="cls-36" x="108.03" y="0">t</tspan><tspan class="cls-44" x="110.86" y="0">a</tspan><tspan class="cls-112" x="113.5" y="0">t</tspan><tspan class="cls-56" x="116.18" y="0">i</tspan><tspan class="cls-44" x="119" y="0">o</tspan><tspan class="cls-155" x="121.64" y="0">n</tspan><tspan x="126" y="0">f</tspan><tspan class="cls-28" x="128.75" y="0">o</tspan><tspan class="cls-41" x="131.45" y="0">r</tspan><tspan class="cls-56" x="135.5" y="0">O</tspan><tspan class="cls-112" x="138.31" y="0">r</tspan><tspan class="cls-98" x="140.99" y="0">a</tspan><tspan class="cls-72" x="143.63" y="0">l</tspan><tspan class="cls-47" x="147.88" y="0">S</tspan><tspan class="cls-94" x="150.7" y="0">q</tspan><tspan class="cls-133" x="153.36" y="0">u</tspan><tspan class="cls-114" x="156.08" y="0">a</tspan><tspan class="cls-85" x="158.83" y="0">m</tspan><tspan class="cls-53" x="161.45" y="0">o</tspan><tspan class="cls-163" x="164.31" y="0">u</tspan><tspan class="cls-90" x="166.97" y="0">s</tspan><tspan x="171.21" y="0">C</tspan><tspan class="cls-112" x="173.96" y="0">e</tspan><tspan class="cls-136" x="176.64" y="0">l</tspan><tspan class="cls-10" x="179.45" y="0">l</tspan><tspan x="183.65" y="0">C</tspan><tspan class="cls-98" x="186.4" y="0">a</tspan><tspan x="189.03" y="0">r</tspan><tspan class="cls-112" x="191.78" y="0">c</tspan><tspan x="194.46" y="0">i</tspan><tspan class="cls-73" x="197.21" y="0">n</tspan><tspan x="199.93" y="0">o</tspan><tspan class="cls-85" x="202.68" y="0">m</tspan><tspan x="205.3" y="0">a.</tspan></text>
  <text class="cls-18" transform="translate(57 132.72)"><tspan class="cls-163" x="0" y="0">Z</tspan><tspan class="cls-73" x="2.66" y="0">h</tspan><tspan class="cls-36" x="5.38" y="0">e</tspan><tspan class="cls-163" x="8.22" y="0">n</tspan><tspan x="10.88" y="0">f</tspan><tspan class="cls-36" x="13.63" y="0">e</tspan><tspan class="cls-4" x="16.47" y="0">i</tspan><tspan class="cls-44" x="20.55" y="0">Wa</tspan><tspan class="cls-166" x="25.83" y="0">n</tspan><tspan x="28.44" y="0">g</tspan></text>
  <text class="cls-18" transform="translate(90.12 132.72)"><tspan class="cls-147" x="0" y="0">,</tspan><tspan x="4.12" y="0">Z</tspan><tspan class="cls-44" x="6.88" y="0">h</tspan><tspan x="9.52" y="0">eny</tspan><tspan class="cls-36" x="17.77" y="0">a</tspan><tspan class="cls-44" x="20.6" y="0">n</tspan><tspan class="cls-49" x="23.24" y="0">g</tspan><tspan x="27.42" y="0">Z</tspan><tspan class="cls-44" x="30.17" y="0">h</tspan><tspan x="32.81" y="0">u</tspan><tspan class="cls-12" x="35.56" y="0">,</tspan><tspan x="39.84" y="0">Ku</tspan><tspan class="cls-44" x="45.34" y="0">n</tspan><tspan x="47.98" y="0">i</tspan><tspan class="cls-111" x="50.73" y="0">o</tspan><tspan class="cls-122" x="54.69" y="0">Y</tspan><tspan class="cls-44" x="57.1" y="0">o</tspan><tspan x="59.74" y="0">s</tspan><tspan class="cls-98" x="62.49" y="0">h</tspan><tspan class="cls-119" x="65.13" y="0">i</tspan><tspan class="cls-36" x="67.79" y="0">za</tspan><tspan class="cls-64" x="73.46" y="0">w</tspan><tspan class="cls-70" x="76.09" y="0">a</tspan><tspan class="cls-49" x="78.88" y="0">,</tspan><tspan x="83.05" y="0">M</tspan><tspan class="cls-141" x="85.8" y="0">a</tspan><tspan class="cls-125" x="88.64" y="0">s</tspan><tspan class="cls-36" x="91.28" y="0">a</tspan><tspan class="cls-44" x="94.12" y="0">h</tspan><tspan class="cls-67" x="96.76" y="0">i</tspan><tspan class="cls-36" x="99.42" y="0">r</tspan><tspan class="cls-164" x="102.26" y="0">o</tspan><tspan class="cls-39" x="106.33" y="0">T</tspan><tspan class="cls-44" x="108.86" y="0">oy</tspan><tspan x="114.14" y="0">ou</tspan><tspan class="cls-36" x="119.64" y="0">r</tspan><tspan x="122.47" y="0">a</tspan><tspan class="cls-147" x="125.22" y="0">,</tspan><tspan class="cls-114" x="129.35" y="0">N</tspan><tspan class="cls-70" x="132.1" y="0">a</tspan><tspan class="cls-98" x="134.88" y="0">o</tspan><tspan x="137.52" y="0">k</tspan><tspan class="cls-72" x="140.27" y="0">i</tspan><tspan x="144.52" y="0">O</tspan><tspan class="cls-67" x="147.27" y="0">i</tspan><tspan x="149.92" y="0">sh</tspan><tspan class="cls-32" x="155.42" y="0">i</tspan><tspan class="cls-40" x="159.56" y="0">a</tspan><tspan class="cls-98" x="162.4" y="0">n</tspan><tspan class="cls-109" x="165.04" y="0">d</tspan><tspan x="169.21" y="0">X</tspan><tspan class="cls-67" x="171.96" y="0">i</tspan><tspan class="cls-36" x="174.62" y="0">a</tspan><tspan x="177.46" y="0">o</tspan><tspan class="cls-98" x="180.21" y="0">y</tspan><tspan class="cls-36" x="182.85" y="0">a</tspan><tspan x="185.69" y="0">n</tspan><tspan class="cls-164" x="188.44" y="0">g</tspan><tspan x="192.51" y="0">M</tspan><tspan class="cls-36" x="195.26" y="0">a</tspan><tspan class="cls-13" x="198.09" y="0">o</tspan><tspan x="200.73" y="0">.</tspan></text>
  <rect class="cls-37" x=".24" y="140.28" width="53.64" height="35.16"/>
  <rect class="cls-37" x=".36" y="140.64" width="53.4" height="34.68"/>
  <text class="cls-18" transform="translate(13.56 162)"><tspan x="0" y="0">18</tspan><tspan class="cls-130" x="5.5" y="0">:</tspan><tspan x="8.21" y="0">10-18</tspan><tspan class="cls-119" x="21.96" y="0">:</tspan><tspan x="24.62" y="0">30</tspan></text>
  <rect class="cls-37" x="53.88" y="140.28" width="374.16" height="35.16"/>
  <rect class="cls-37" x="54" y="140.64" width="374.04" height="34.68"/>
  <text class="cls-18" transform="translate(57 151.56)"><tspan x="0" y="0">48</tspan><tspan class="cls-151" x="5.5" y="0">5</tspan><tspan x="8.3" y="0">9</tspan></text>
  <text class="cls-18" transform="translate(57 162)"><tspan x="0" y="0">J-D</tspan><tspan class="cls-96" x="8.25" y="0">D</tspan><tspan class="cls-73" x="10.93" y="0">L</tspan><tspan class="cls-131" x="13.65" y="0">:</tspan><tspan class="cls-47" x="17.92" y="0">S</tspan><tspan class="cls-97" x="20.74" y="0">u</tspan><tspan class="cls-36" x="23.29" y="0">r</tspan><tspan x="26.13" y="0">f</tspan><tspan class="cls-28" x="28.88" y="0">a</tspan><tspan x="31.58" y="0">c</tspan><tspan class="cls-83" x="34.33" y="0">e</tspan><tspan x="38.49" y="0">D</tspan><tspan class="cls-28" x="41.24" y="0">a</tspan><tspan class="cls-59" x="43.94" y="0">m</tspan><tspan x="46.56" y="0">a</tspan><tspan class="cls-68" x="49.31" y="0">g</tspan><tspan class="cls-83" x="52.22" y="0">e</tspan><tspan x="56.38" y="0">D</tspan><tspan class="cls-112" x="59.13" y="0">e</tspan><tspan x="61.81" y="0">t</tspan><tspan class="cls-14" x="64.56" y="0">e</tspan><tspan x="67.34" y="0">c</tspan><tspan class="cls-112" x="70.09" y="0">t</tspan><tspan class="cls-56" x="72.77" y="0">i</tspan><tspan class="cls-44" x="75.59" y="0">o</tspan><tspan class="cls-61" x="78.23" y="0">n</tspan><tspan class="cls-44" x="82.42" y="0">a</tspan><tspan class="cls-73" x="85.06" y="0">n</tspan><tspan class="cls-158" x="87.78" y="0">d</tspan><tspan class="cls-140" x="92.14" y="0">L</tspan><tspan x="94.96" y="0">oc</tspan><tspan class="cls-82" x="100.46" y="0">a</tspan><tspan class="cls-56" x="103.05" y="0">l</tspan><tspan class="cls-119" x="105.86" y="0">i</tspan><tspan class="cls-112" x="108.52" y="0">z</tspan><tspan class="cls-151" x="111.2" y="0">a</tspan><tspan class="cls-70" x="114" y="0">t</tspan><tspan class="cls-56" x="116.78" y="0">i</tspan><tspan x="119.6" y="0">o</tspan><tspan class="cls-86" x="122.35" y="0">n</tspan><tspan x="126.49" y="0">S</tspan><tspan class="cls-127" x="129.24" y="0">y</tspan><tspan x="132.04" y="0">st</tspan><tspan class="cls-6" x="137.54" y="0">e</tspan><tspan class="cls-8" x="140.22" y="0">m</tspan><tspan class="cls-6" x="144.43" y="0">f</tspan><tspan x="147.11" y="0">o</tspan><tspan class="cls-2" x="149.86" y="0">r</tspan><tspan class="cls-98" x="153.91" y="0">F</tspan><tspan x="156.55" y="0">i</tspan><tspan class="cls-127" x="159.3" y="0">g</tspan><tspan class="cls-163" x="162.1" y="0">h</tspan><tspan class="cls-141" x="164.76" y="0">t</tspan><tspan x="167.6" y="0">e</tspan><tspan class="cls-9" x="170.35" y="0">r</tspan><tspan x="174.12" y="0">A</tspan><tspan class="cls-71" x="176.87" y="0">i</tspan><tspan class="cls-123" x="179.53" y="0">r</tspan><tspan x="182.2" y="0">c</tspan><tspan class="cls-112" x="184.95" y="0">r</tspan><tspan x="187.63" y="0">af</tspan><tspan class="cls-36" x="193.13" y="0">t</tspan><tspan x="195.97" y="0">.</tspan></text>
  <text class="cls-18" transform="translate(57 172.56)"><tspan x="0" y="0">J</tspan><tspan class="cls-119" x="2.75" y="0">i</tspan><tspan class="cls-138" x="5.41" y="0">n</tspan><tspan class="cls-56" x="9.66" y="0">H</tspan><tspan class="cls-97" x="12.47" y="0">u</tspan><tspan x="15.03" y="0">a</tspan><tspan class="cls-133" x="17.78" y="0">n</tspan><tspan x="20.49" y="0">g</tspan></text>
  <text class="cls-18" transform="translate(81.6 172.56)"><tspan class="cls-147" x="0" y="0">,</tspan><tspan class="cls-80" x="4.12" y="0">M</tspan><tspan class="cls-67" x="6.93" y="0">i</tspan><tspan x="9.59" y="0">ngq</tspan><tspan class="cls-130" x="17.84" y="0">i</tspan><tspan class="cls-70" x="20.55" y="0">a</tspan><tspan class="cls-151" x="23.33" y="0">n</tspan><tspan class="cls-164" x="26.13" y="0">g</tspan><tspan class="cls-21" x="30.2" y="0">W</tspan><tspan class="cls-59" x="32.66" y="0">e</tspan><tspan class="cls-67" x="35.28" y="0">i</tspan><tspan class="cls-69" x="37.94" y="0">,</tspan><tspan x="42.06" y="0">Z</tspan><tspan class="cls-67" x="44.81" y="0">i</tspan><tspan x="47.46" y="0">k</tspan><tspan class="cls-127" x="50.21" y="0">u</tspan><tspan class="cls-14" x="53.01" y="0">a</tspan><tspan class="cls-147" x="55.8" y="0">n</tspan><tspan x="59.92" y="0">L</tspan><tspan class="cls-119" x="62.67" y="0">i</tspan><tspan class="cls-45" x="65.33" y="0">,</tspan><tspan x="69.56" y="0">H</tspan><tspan class="cls-36" x="72.31" y="0">a</tspan><tspan class="cls-44" x="75.15" y="0">n</tspan><tspan x="77.79" y="0">gy</tspan><tspan class="cls-49" x="83.29" y="0">u</tspan><tspan x="87.47" y="0">Qu</tspan><tspan class="cls-165" x="92.97" y="0">,</tspan><tspan class="cls-52" x="96.98" y="0">W</tspan><tspan class="cls-106" x="99.49" y="0">e</tspan><tspan class="cls-32" x="102.06" y="0">i</tspan><tspan x="106.19" y="0">Z</tspan><tspan class="cls-44" x="108.94" y="0">h</tspan><tspan class="cls-70" x="111.58" y="0">a</tspan><tspan class="cls-45" x="114.37" y="0">o</tspan><tspan class="cls-36" x="118.6" y="0">a</tspan><tspan class="cls-44" x="121.44" y="0">n</tspan><tspan class="cls-58" x="124.08" y="0">d</tspan><tspan x="128.15" y="0">X</tspan><tspan class="cls-119" x="130.9" y="0">i</tspan><tspan x="133.56" y="0">ny</tspan><tspan class="cls-46" x="139.06" y="0">u</tspan><tspan class="cls-163" x="143.4" y="0">B</tspan><tspan class="cls-36" x="146.06" y="0">a</tspan><tspan class="cls-71" x="148.9" y="0">i</tspan><tspan x="151.55" y="0">.</tspan></text>
  <rect class="cls-37" x=".24" y="175.44" width="53.64" height="17.76"/>
  <rect class="cls-37" x=".36" y="175.8" width="53.4" height="17.16"/>
  <text class="cls-18" transform="translate(13.56 188.28)"><tspan x="0" y="0">18</tspan><tspan class="cls-130" x="5.5" y="0">:</tspan><tspan x="8.21" y="0">30-20:30</tspan></text>
  <rect class="cls-37" x="53.88" y="175.44" width="374.16" height="17.76"/>
  <rect class="cls-19" x="54" y="175.8" width="374.04" height="17.16"/>
  <text class="cls-16" transform="translate(146.76 188.04)"><tspan class="cls-5" x="0" y="0">B</tspan><tspan class="cls-150" x="5.26" y="0">a</tspan><tspan class="cls-99" x="10.45" y="0">n</tspan><tspan class="cls-120" x="15.77" y="0">q</tspan><tspan class="cls-92" x="21.2" y="0">u</tspan><tspan class="cls-160" x="26.43" y="0">e</tspan><tspan class="cls-30" x="31.72" y="0">t</tspan><tspan x="39.26" y="0">(</tspan></text>
  <text class="cls-15" transform="translate(187.81 188.03)"><tspan x="0" y="0" xml:space="preserve"> 三</tspan><tspan class="cls-126" x="15.67" y="0">楼</tspan><tspan x="26.22" y="0">如</tspan><tspan class="cls-124" x="36.67" y="0">意</tspan><tspan x="47.21" y="0">厅</tspan></text>
  <text class="cls-16" transform="translate(240.36 188.04)"><tspan class="cls-55" x="0" y="0" xml:space="preserve"> /</tspan><tspan class="cls-57" x="15.72" y="0">R</tspan><tspan class="cls-153" x="20.88" y="0">u</tspan><tspan class="cls-76" x="26.2" y="0">y</tspan><tspan class="cls-100" x="31.33" y="0">i</tspan><tspan class="cls-107" x="39.29" y="0">H</tspan><tspan class="cls-25" x="44.59" y="0">a</tspan><tspan class="cls-62" x="49.78" y="0">l</tspan><tspan class="cls-152" x="55.03" y="0">l</tspan><tspan class="cls-149" x="60.38" y="0">,</tspan><tspan class="cls-153" x="68.11" y="0">3</tspan><tspan class="cls-25" x="73.43" y="0">r</tspan><tspan class="cls-148" x="78.62" y="0">d</tspan><tspan class="cls-31" x="86.56" y="0">F</tspan><tspan class="cls-118" x="91.72" y="0">l</tspan><tspan class="cls-153" x="96.87" y="0">o</tspan><tspan x="102.19" y="0">o</tspan><tspan class="cls-102" x="107.42" y="0">r</tspan><tspan x="112.81" y="0">)</tspan></text>
  <line class="cls-110" x1="0" y1=".24" x2="428.28" y2=".24"/>
  <line class="cls-110" x1="0" y1="19.56" x2="428.28" y2="19.56"/>
  <line class="cls-110" x1="0" y1="59.88" x2="428.28" y2="59.88"/>
  <line class="cls-110" x1="0" y1="100.2" x2="428.28" y2="100.2"/>
  <line class="cls-110" x1="0" y1="140.52" x2="428.28" y2="140.52"/>
  <line class="cls-110" x1="0" y1="175.68" x2="428.28" y2="175.68"/>
  <line class="cls-110" x1="0" y1="192.96" x2="428.28" y2="192.96"/>
  <line class="cls-110" x1=".24" x2=".24" y2="192.72"/>
  <line class="cls-110" x1="53.88" x2="53.88" y2="192.72"/>
  <line class="cls-110" x1="428.04" x2="428.04" y2="192.72"/>
</svg>